<svg width="98" height="56" viewBox="0 0 98 56" fill="none" xmlns="http://www.w3.org/2000/svg">
<path d="M97.4326 46.0382C97.4326 59.0862 80.7063 39.9722 45.5381 44.1226C20.1196 47.1224 34.2224 59.5291 8.2934 51.7849C-13.2859 45.3399 10.7635 1.68333 40.1601 0.0895845C78.6798 -1.99878 97.4326 32.9901 97.4326 46.0382Z" fill="#C14444"/>
<path d="M96.4184 48.717C96.4184 55.9833 80.0257 42.6005 46.6255 47.6502C22.2904 51.3294 22.5117 60.2656 9.12745 53.5954C-11.8818 43.1254 19.0105 24.1816 42.6286 24.1816C85.3931 23.1153 96.4184 41.4507 96.4184 48.717Z" fill="#FEFFDA"/>
<path d="M25.676 46.7597C40.6681 35.0933 51.2853 33.8773 73.4654 39.5421" stroke="#FFEBC4" stroke-width="2" stroke-linecap="round"/>
<path d="M71.076 20.5947C76.2938 21.3494 78.8891 23.4096 80.83 24.6457" stroke="white" stroke-width="2" stroke-linecap="round"/>
<path d="M84.2542 26.8666C84.9292 26.6586 84.9664 27.5508 85.2864 27.2954" stroke="white" stroke-width="2" stroke-linecap="round"/>
</svg>
