<svg width="99" height="57" viewBox="0 0 99 57" fill="none" xmlns="http://www.w3.org/2000/svg">
<path d="M0.881188 11.0307C1.13095 -1.42785 17.2517 17.1532 51.9954 13.8852C77.1071 11.5232 61.9897 -5.73707 88.8531 7.30495C112.093 18.5877 85.4593 55.0942 56.4535 56.0351C18.4457 57.268 0.63143 23.4893 0.881188 11.0307Z" fill="#BEDBB8"/>
<path d="M1.93155 8.49437C2.07063 1.55634 17.9722 14.6585 50.9904 10.4968C75.0473 7.46471 67.7775 -4.74054 88.065 5.56115C108.572 15.9744 77.7605 33.4508 54.4808 32.9842C12.3088 33.1572 1.79246 15.4324 1.93155 8.49437Z" fill="#FEFFDA"/>
<path d="M71.6227 11.7598C56.6221 22.6029 46.1338 23.5542 24.38 17.707" stroke="#FFEBC4" stroke-width="2" stroke-linecap="round"/>
<path d="M26.372 35.8452C21.2434 35.0215 18.7247 33.0031 16.8354 31.7845" stroke="white" stroke-width="2" stroke-linecap="round"/>
<path d="M13.5031 29.5961C12.834 29.7815 12.8145 28.929 12.4944 29.1666" stroke="white" stroke-width="2" stroke-linecap="round"/>
</svg>
