<svg width="167" height="46" viewBox="0 0 167 46" fill="none" xmlns="http://www.w3.org/2000/svg">
<path d="M6.45 32.31H22.38C22.53 32.31 22.62 32.25 22.62 32.07V27.42C22.62 26.85 22.41 26.37 22.02 25.98C21.63 25.59 21.15 25.38 20.58 25.38H3.69C3.51 25.38 3.42 25.47 3.42 25.62V27.81C3.42 27.99 3.51 28.08 3.69 28.08H19.59V29.61H3.69C3.51 29.61 3.42 29.7 3.42 29.88V34.5C3.42 35.1 3.6 35.58 4.02 35.97C4.41 36.39 4.89 36.57 5.46 36.57H22.38C22.53 36.57 22.62 36.48 22.62 36.3V34.11C22.62 33.96 22.53 33.87 22.38 33.87H6.45V32.31ZM25.59 15.96H22.62V11.37C22.62 11.22 22.53 11.13 22.38 11.13H19.83C19.65 11.13 19.59 11.22 19.59 11.37V23.82C19.59 24 19.65 24.09 19.83 24.09H22.38C22.53 24.09 22.62 24 22.62 23.82V18.81H25.59C25.77 18.81 25.86 18.75 25.86 18.57V16.2C25.86 16.05 25.77 15.96 25.59 15.96ZM8.97 19.32C9.3 19.83 9.72 20.31 10.2 20.76C10.68 21.21 11.25 21.63 11.85 22.02C12.66 22.56 13.44 22.98 14.16 23.28C14.88 23.58 15.42 23.76 15.72 23.85C15.9 23.94 15.99 23.88 16.05 23.67L16.71 21.27C16.74 21.12 16.68 21.03 16.53 20.97C16.26 20.88 15.84 20.73 15.3 20.49C14.73 20.25 14.13 19.92 13.5 19.5C11.46 18.18 10.47 16.59 10.47 14.67V14.52H15.57C15.72 14.52 15.81 14.46 15.81 14.28V11.79C15.81 11.61 15.72 11.52 15.57 11.52H2.37C2.19 11.52 2.1 11.61 2.1 11.79V14.28C2.1 14.46 2.19 14.52 2.37 14.52H7.47V14.67C7.47 16.53 6.48 18.15 4.5 19.47C3.84 19.89 3.24 20.22 2.67 20.46C2.07 20.7 1.65 20.88 1.38 20.97C1.32 21 1.26 21.03 1.23 21.09C1.17 21.15 1.17 21.21 1.23 21.27L1.86 23.67C1.92 23.85 2.04 23.91 2.19 23.85C2.49 23.76 3.03 23.58 3.75 23.28C4.47 22.98 5.25 22.56 6.09 22.02C7.29 21.24 8.25 20.34 8.97 19.32ZM39.547 25.53H42.067C42.247 25.53 42.337 25.44 42.337 25.26V19.92H44.767V25.26C44.767 25.44 44.857 25.53 45.037 25.53H47.557C47.737 25.53 47.827 25.44 47.827 25.26V11.4C47.827 11.22 47.737 11.13 47.557 11.13H45.037C44.857 11.13 44.767 11.22 44.767 11.4V17.07H42.337V11.4C42.337 11.22 42.247 11.13 42.067 11.13H39.547C39.367 11.13 39.277 11.22 39.277 11.4V25.26C39.277 25.44 39.367 25.53 39.547 25.53ZM46.867 28.89C46.327 28.26 45.547 27.72 44.587 27.3C42.907 26.58 40.597 26.19 37.687 26.19C36.307 26.19 35.017 26.31 33.877 26.49C32.737 26.67 31.747 26.94 30.907 27.3C30.187 27.6 29.587 27.96 29.167 28.32C28.717 28.71 28.387 29.1 28.147 29.46C27.907 29.85 27.727 30.21 27.667 30.57C27.607 30.93 27.577 31.26 27.577 31.5C27.577 32.46 27.877 33.3 28.507 34.08C29.017 34.74 29.767 35.28 30.787 35.7C32.467 36.42 34.747 36.78 37.687 36.78C40.537 36.78 42.817 36.42 44.557 35.7C45.517 35.28 46.297 34.77 46.837 34.11C47.497 33.39 47.827 32.52 47.827 31.5C47.827 30.54 47.497 29.67 46.867 28.89ZM43.387 32.94C42.007 33.51 40.117 33.78 37.687 33.78C35.227 33.78 33.307 33.51 31.987 32.94C31.627 32.82 31.327 32.67 31.147 32.49C30.967 32.34 30.817 32.19 30.727 32.07C30.637 31.95 30.577 31.83 30.577 31.71C30.577 31.62 30.577 31.56 30.577 31.5C30.577 31.17 30.727 30.87 31.057 30.63C31.357 30.39 31.687 30.21 32.047 30.06C32.707 29.79 33.517 29.58 34.477 29.43C35.437 29.28 36.517 29.19 37.687 29.19C40.147 29.19 42.067 29.49 43.387 30.06C44.347 30.48 44.827 30.96 44.827 31.5C44.827 31.56 44.797 31.62 44.797 31.71C44.767 31.83 44.707 31.95 44.617 32.07C44.527 32.19 44.377 32.34 44.197 32.49C44.017 32.64 43.747 32.79 43.387 32.94ZM28.057 14.4H34.807C34.987 14.4 35.077 14.34 35.077 14.16V11.79C35.077 11.64 34.987 11.55 34.807 11.55H28.057C27.877 11.55 27.787 11.64 27.787 11.79V14.16C27.787 14.34 27.877 14.4 28.057 14.4ZM31.417 21.42C31.897 22.11 32.587 22.8 33.457 23.46C34.297 24.15 35.437 24.72 36.817 25.14C36.967 25.23 37.057 25.17 37.117 24.96L37.807 22.71C37.837 22.65 37.837 22.59 37.807 22.53C37.747 22.47 37.717 22.44 37.657 22.41C35.917 21.84 34.627 20.94 33.727 19.71C33.487 19.41 33.307 19.11 33.187 18.84C33.067 18.57 32.977 18.36 32.917 18.18H36.667C36.817 18.18 36.907 18.12 36.907 17.94V15.57C36.907 15.42 36.817 15.33 36.667 15.33H26.227C26.047 15.33 25.957 15.42 25.957 15.57V17.94C25.957 18.12 26.047 18.18 26.227 18.18H29.947C29.887 18.36 29.797 18.57 29.677 18.81C29.557 19.05 29.407 19.32 29.197 19.59C28.297 20.91 26.977 21.84 25.207 22.41C25.027 22.47 24.967 22.56 25.027 22.71L25.717 24.96C25.777 25.14 25.897 25.2 26.047 25.14C27.427 24.72 28.537 24.15 29.377 23.46C30.217 22.8 30.907 22.11 31.417 21.42ZM69.9405 11.13H67.3905C67.2105 11.13 67.1505 11.22 67.1505 11.37V36.3C67.1505 36.48 67.2105 36.57 67.3905 36.57H69.9405C70.0905 36.57 70.1805 36.48 70.1805 36.3V11.37C70.1805 11.22 70.0905 11.13 69.9405 11.13ZM61.0005 11.52H50.2005C50.0205 11.52 49.9605 11.61 49.9605 11.79V14.31C49.9605 14.49 50.0205 14.55 50.2005 14.55H59.9805C59.9205 15.18 59.8005 15.96 59.6505 16.86C59.4705 17.79 59.2305 18.78 58.9305 19.86C58.6005 20.94 58.1805 22.02 57.6705 23.16C57.1605 24.3 56.5305 25.41 55.7805 26.49C55.0005 27.57 54.1005 28.59 53.0505 29.52C51.9705 30.48 50.7405 31.26 49.3305 31.92C49.1505 32.01 49.1205 32.13 49.2105 32.25L50.2305 34.53C50.2905 34.71 50.3805 34.77 50.5605 34.68C52.2405 33.9 53.7405 32.97 55.0005 31.83C56.2605 30.72 57.3405 29.52 58.2405 28.23C59.1405 26.97 59.8905 25.62 60.4905 24.24C61.0605 22.86 61.5405 21.54 61.9005 20.25C62.2605 18.96 62.5005 17.76 62.6805 16.62C62.8605 15.48 62.9805 14.52 63.0405 13.71C63.0405 13.14 62.8605 12.63 62.4705 12.18C62.0505 11.76 61.5705 11.52 61.0005 11.52ZM92.6034 11.13H90.0834C89.9034 11.13 89.8134 11.22 89.8134 11.37V25.05C89.8134 25.23 89.9034 25.32 90.0834 25.32H92.6034C92.7834 25.32 92.8734 25.23 92.8734 25.05V11.37C92.8734 11.22 92.7834 11.13 92.6034 11.13ZM90.8334 26.76H75.7134C75.1134 26.76 74.6334 26.97 74.2434 27.36C73.8534 27.75 73.6734 28.23 73.6734 28.8V34.5C73.6734 35.1 73.8534 35.58 74.2434 35.97C74.6334 36.39 75.1134 36.57 75.7134 36.57H90.8334C91.3734 36.57 91.8534 36.39 92.2734 35.97C92.6634 35.58 92.8734 35.1 92.8734 34.5V28.8C92.8734 28.23 92.6634 27.75 92.2734 27.36C91.8534 26.97 91.3734 26.76 90.8334 26.76ZM89.8134 29.61V33.69H76.7034V29.61H89.8134ZM79.1634 19.71C79.8834 20.82 80.8434 21.78 82.0134 22.62C82.8534 23.22 83.6334 23.67 84.3534 24C85.0734 24.33 85.6134 24.54 85.9134 24.63C86.0934 24.72 86.1834 24.66 86.2434 24.45L86.9334 22.14C86.9634 21.99 86.9034 21.87 86.7534 21.81C86.4534 21.72 85.9734 21.51 85.3134 21.21C84.6234 20.91 83.9334 20.46 83.2434 19.89C82.5534 19.35 81.9534 18.63 81.4134 17.79C80.8734 16.95 80.6334 15.96 80.6334 14.82V14.52H85.7634C85.9434 14.52 86.0334 14.46 86.0334 14.28V11.79C86.0334 11.61 85.9434 11.52 85.7634 11.52H72.5634C72.3834 11.52 72.3234 11.61 72.3234 11.79V14.28C72.3234 14.46 72.3834 14.52 72.5634 14.52H77.6934V14.82C77.6934 16.92 76.6734 18.72 74.6634 20.19C74.0034 20.67 73.4034 21.03 72.8334 21.27C72.2334 21.54 71.8134 21.72 71.5734 21.81C71.3934 21.9 71.3634 22.02 71.4234 22.14L72.0834 24.48C72.1434 24.66 72.2634 24.69 72.4134 24.63C72.7134 24.54 73.2534 24.33 73.9734 24C74.6934 23.67 75.4734 23.22 76.3134 22.62C77.5134 21.78 78.4434 20.82 79.1634 19.71ZM96.8086 10.98C96.6286 10.98 96.5386 11.07 96.5386 11.25V29.88C96.5386 30.06 96.6286 30.15 96.8086 30.15H99.3286C99.5086 30.15 99.5986 30.06 99.5986 29.88V11.25C99.5986 11.07 99.5086 10.98 99.3286 10.98H96.8086ZM96.8086 36.72C96.6286 36.72 96.5386 36.63 96.5386 36.45V33.93C96.5386 33.75 96.6286 33.66 96.8086 33.66H99.3286C99.5086 33.66 99.5986 33.75 99.5986 33.93V36.45C99.5986 36.63 99.5086 36.72 99.3286 36.72H96.8086Z" fill="#BEDBB8"/>
<circle cx="147.677" cy="6.84671" r="4" transform="rotate(17.4689 147.677 6.84671)" fill="#DEBA83"/>
<circle cx="161.032" cy="11.0494" r="4" transform="rotate(17.4689 161.032 11.0494)" fill="#DEBA83"/>
<path d="M160.838 18.3269C159.346 23.0682 155.493 21.8867 150.752 20.3946C146.011 18.9025 142.176 17.6649 143.668 12.9235C145.16 8.18222 150.213 5.54821 154.955 7.04031C159.696 8.53241 162.33 13.5856 160.838 18.3269Z" fill="#DEBA83"/>
<circle cx="150.919" cy="11.5361" r="0.5" transform="rotate(17.4689 150.919 11.5361)" fill="#303030"/>
<path d="M153.763 14.1592C153.622 14.6078 153.08 14.8371 152.553 14.6713C152.026 14.5055 151.714 14.0075 151.855 13.5589C151.996 13.1103 152.627 12.5976 153.154 12.7634C153.681 12.9292 153.904 13.7106 153.763 14.1592Z" fill="#434343"/>
<circle cx="155.688" cy="13.0371" r="0.5" transform="rotate(17.4689 155.688 13.0371)" fill="#303030"/>
<path d="M149.753 7.06202C149.7 8.16531 148.287 8.49318 147.184 8.44006C145.637 9.36677 145.229 7.44949 145.282 6.3462C145.335 5.24291 146.273 4.39157 147.376 4.44469C148.479 4.49781 150.8 6.11127 149.753 7.06202Z" fill="#D2AA6D"/>
<path d="M160.28 12.8779C159.187 12.72 158.98 11.3892 159.125 10.3805C158.334 8.86778 160.275 8.68216 161.369 8.84006C162.462 8.99797 163.23 9.94366 163.084 10.9523C162.939 11.961 161.138 13.934 160.28 12.8779Z" fill="#CDD5A0"/>
<path d="M111.216 7.20911L140.01 13.6276L163.049 27.4721L126.448 19.313L111.216 7.20911Z" fill="#FFE7AB"/>
<path d="M126.936 19.4218L163.049 27.472L159.133 45.0408L123.019 36.9905L126.936 19.4218Z" fill="#BEDBB8"/>
<path d="M111.216 7.20911L126.936 19.4218L123.019 36.9906L108.17 20.8737L111.216 7.20911Z" fill="#FF9494"/>
<path d="M125.564 10.4027L152.882 25.2336L138.02 22.0152L120.118 9.1394L125.564 10.4027Z" fill="#FFB74A"/>
<path d="M138.02 22.0152L152.882 25.2337L148.545 42.5451L133.183 39.3026L138.02 22.0152Z" fill="#FFC266"/>
<g filter="url(#filter0_d_78_573)">
<path d="M153.098 19.3932C151.575 20.0701 150.664 21.2305 151.768 23.0139C152.871 24.7974 154.558 24.9365 156.081 24.2597C157.605 23.5828 158.673 22.0063 157.57 20.2228C156.467 18.4393 154.622 18.7163 153.098 19.3932Z" fill="#DEBA83"/>
</g>
<g filter="url(#filter1_d_78_573)">
<path d="M143.35 13.918C141.827 14.5949 140.916 15.7552 142.02 17.5387C143.123 19.3222 144.81 19.4613 146.333 18.7845C147.857 18.1076 148.925 16.5311 147.822 14.7476C146.719 12.9641 144.874 13.2411 143.35 13.918Z" fill="#DEBA83"/>
</g>
<defs>
<filter id="filter0_d_78_573" x="148.281" y="15.8734" width="14.7434" height="13.7616" filterUnits="userSpaceOnUse" color-interpolation-filters="sRGB">
<feFlood flood-opacity="0" result="BackgroundImageFix"/>
<feColorMatrix in="SourceAlpha" type="matrix" values="0 0 0 0 0 0 0 0 0 0 0 0 0 0 0 0 0 0 127 0" result="hardAlpha"/>
<feOffset dx="1" dy="1"/>
<feGaussianBlur stdDeviation="2"/>
<feComposite in2="hardAlpha" operator="out"/>
<feColorMatrix type="matrix" values="0 0 0 0 0 0 0 0 0 0 0 0 0 0 0 0 0 0 0.35 0"/>
<feBlend mode="normal" in2="BackgroundImageFix" result="effect1_dropShadow_78_573"/>
<feBlend mode="normal" in="SourceGraphic" in2="effect1_dropShadow_78_573" result="shape"/>
</filter>
<filter id="filter1_d_78_573" x="138.532" y="10.3982" width="14.7434" height="13.7616" filterUnits="userSpaceOnUse" color-interpolation-filters="sRGB">
<feFlood flood-opacity="0" result="BackgroundImageFix"/>
<feColorMatrix in="SourceAlpha" type="matrix" values="0 0 0 0 0 0 0 0 0 0 0 0 0 0 0 0 0 0 127 0" result="hardAlpha"/>
<feOffset dx="1" dy="1"/>
<feGaussianBlur stdDeviation="2"/>
<feComposite in2="hardAlpha" operator="out"/>
<feColorMatrix type="matrix" values="0 0 0 0 0 0 0 0 0 0 0 0 0 0 0 0 0 0 0.35 0"/>
<feBlend mode="normal" in2="BackgroundImageFix" result="effect1_dropShadow_78_573"/>
<feBlend mode="normal" in="SourceGraphic" in2="effect1_dropShadow_78_573" result="shape"/>
</filter>
</defs>
</svg>
