<svg width="30" height="30" viewBox="0 0 30 30" fill="none" xmlns="http://www.w3.org/2000/svg">
<g opacity="0.8">
<path fill-rule="evenodd" clip-rule="evenodd" d="M8.29289 8.29289C7.90237 8.68342 7.90237 9.31658 8.29289 9.70711L13.6569 15.0711L8.7068 20.0212C8.31628 20.4118 8.31628 21.0449 8.7068 21.4355C9.09733 21.826 9.73049 21.826 10.121 21.4355L15.0711 16.4853L19.6066 21.0208C19.9971 21.4113 20.6303 21.4113 21.0208 21.0208C21.4113 20.6303 21.4113 19.9971 21.0208 19.6066L16.4853 15.0711L21.4347 10.1217C21.8253 9.73122 21.8253 9.09806 21.4347 8.70753C21.0442 8.31701 20.411 8.31701 20.0205 8.70753L15.0711 13.6569L9.70711 8.29289C9.31658 7.90237 8.68342 7.90237 8.29289 8.29289Z" fill="#2E2E2E"/>
</g>
</svg>
