<svg width="19" height="20" viewBox="0 0 16 15" fill="none" xmlns="http://www.w3.org/2000/svg">
<path d="M8 15C7.75297 14.9997 7.51176 14.9239 7.30773 14.7824C4.2852 12.6984 2.97642 11.2695 2.25454 10.3762C0.716158 8.47188 -0.0203411 6.5168 0.000427061 4.39961C0.0246565 1.97344 1.94109 0 4.27251 0C5.9678 0 7.14197 0.969922 7.82578 1.77773C7.84744 1.80307 7.8742 1.82338 7.90426 1.8373C7.93432 1.85122 7.96697 1.85842 8 1.85842C8.03304 1.85842 8.06568 1.85122 8.09574 1.8373C8.1258 1.82338 8.15256 1.80307 8.17422 1.77773C8.85803 0.969141 10.0322 0 11.7275 0C14.0589 0 15.9753 1.97344 15.9996 4.4C16.0203 6.51758 15.2831 8.47266 13.7455 10.3766C13.0236 11.2699 11.7148 12.6988 8.69227 14.7828C8.4882 14.9241 8.24699 14.9998 8 15Z" fill="#D94F4F"/>
</svg>
