<svg width="18" height="21" viewBox="0 0 18 21" fill="none" xmlns="http://www.w3.org/2000/svg">
<path d="M8.92773 19.6147C9.06055 19.6147 9.27637 19.5649 9.48389 19.4487C14.207 16.8008 15.8257 15.6802 15.8257 12.6504V6.30029C15.8257 5.42871 15.4521 5.15479 14.7466 4.85596C13.7671 4.44922 10.6045 3.31201 9.625 2.97168C9.40088 2.89697 9.16016 2.84717 8.92773 2.84717C8.69531 2.84717 8.45459 2.91357 8.23877 2.97168C7.25928 3.25391 4.08838 4.45752 3.10889 4.85596C2.41162 5.14648 2.02979 5.42871 2.02979 6.30029V12.6504C2.02979 15.6802 3.65674 16.7925 8.37158 19.4487C8.5874 19.5649 8.79492 19.6147 8.92773 19.6147ZM8.92773 18.1123C8.79492 18.1123 8.66211 18.0625 8.41309 17.9131C4.57812 15.5889 3.34961 14.9082 3.34961 12.3433V6.55762C3.34961 6.27539 3.39941 6.16748 3.63184 6.07617C4.89355 5.57812 7.34229 4.75635 8.5957 4.2583C8.72852 4.2002 8.83643 4.18359 8.92773 4.18359C9.01904 4.18359 9.12695 4.2085 9.25977 4.2583C10.5132 4.75635 12.9453 5.63623 14.2319 6.07617C14.4561 6.15918 14.5059 6.27539 14.5059 6.55762V12.3433C14.5059 14.9082 13.2773 15.5806 9.44238 17.9131C9.20166 18.0625 9.06055 18.1123 8.92773 18.1123ZM8.92773 12.3267C9.31787 12.3267 9.55029 12.1025 9.55859 11.6709L9.68311 7.28809C9.69141 6.86475 9.35938 6.54932 8.91943 6.54932C8.47119 6.54932 8.15576 6.85645 8.16406 7.27979L8.27197 11.6709C8.28027 12.0942 8.5127 12.3267 8.92773 12.3267ZM8.92773 15.0244C9.40088 15.0244 9.81592 14.6426 9.81592 14.1611C9.81592 13.6797 9.40918 13.2979 8.92773 13.2979C8.43799 13.2979 8.03125 13.688 8.03125 14.1611C8.03125 14.6343 8.44629 15.0244 8.92773 15.0244Z" fill="#424242"/>
</svg>
